<svg aria-hidden="true" style="position:absolute;width:0;height:0;overflow:hidden" xmlns="http://www.w3.org/2000/svg">
  <defs>
    <symbol id="icon-sort" viewBox="0 0 32 32">
      <path d="M10 26.59V2H8v24.59l-3.95-3.95-1.41 1.41 5.65 5.66a1 1 0 0 0 1.42 0l5.65-5.66-1.41-1.41zM29.36 7.95l-5.65-5.66a1 1 0 0 0-1.42 0l-5.65 5.66 1.41 1.41L22 5.41V30h2V5.41l3.95 3.95z"/>
    </symbol>
    <symbol id="icon-heart" viewBox="0 0 32 32">
      <path fill="#666" style="fill:var(--color1, #666)" d="m20.01 15.24-3.1 6.21a1 1 0 0 1-1.81-.04l-3.56-7.9L9.67 18H3.79l11.4 11.65c.45.46 1.17.46 1.61 0L28.21 18H21.4l-1.38-2.76zm9.6-10.62-.15-.16a8.19 8.19 0 0 0-11.72 0L16 6.25l-1.74-1.78a8.18 8.18 0 0 0-11.72 0l-.15.15A8.58 8.58 0 0 0 1.94 16h6.4l2.24-5.39a1 1 0 0 1 1.84-.02l3.64 8.08 3.06-6.12a1 1 0 0 1 1.79 0L22.63 16h7.43a8.58 8.58 0 0 0-.45-11.38z"/>
    </symbol>
    <symbol id="icon-recover" viewBox="0 0 25 32">
      <path fill="#666" style="fill:var(--color1, #666)" d="M23.56 6.56 17.44.44A1.5 1.5 0 0 0 16.38 0H16v8h8v-.38c0-.4-.16-.78-.44-1.06zM14 8.5V0H1.5C.67 0 0 .67 0 1.5v29c0 .83.67 1.5 1.5 1.5h21c.83 0 1.5-.67 1.5-1.5V10h-8.5A1.5 1.5 0 0 1 14 8.5zm4 10v3a.5.5 0 0 1-.5.5H14v3.5a.5.5 0 0 1-.5.5h-3a.5.5 0 0 1-.5-.5V22H6.5a.5.5 0 0 1-.5-.5v-3c0-.28.23-.5.5-.5H10v-3.5c0-.28.23-.5.5-.5h3c.28 0 .5.23.5.5V18h3.5c.28 0 .5.23.5.5z"/>
    </symbol>
    <symbol id="icon-search" viewBox="0 0 32 32">
      <path fill="#666" style="fill:var(--color1, #666)" d="m31.56 27.67-6.23-6.23a1.5 1.5 0 0 0-1.06-.44h-1.02A13 13 0 1 0 21 23.25v1.02c0 .4.16.78.44 1.06l6.23 6.23a1.5 1.5 0 0 0 2.12 0l1.77-1.77a1.5 1.5 0 0 0 0-2.12zM13 21a8 8 0 1 1-.01-15.99A8 8 0 0 1 13 21z"/>
    </symbol>
    <symbol id="icon-death" viewBox="0 0 32 32">
      <path fill="#666" style="fill:var(--color1, #666)" d="M16 0C7.16 0 0 6.27 0 14c0 4.38 2.3 8.29 5.9 10.86.6.43.96 1.13.85 1.87l-.59 4.13A1 1 0 0 0 7.14 32H12v-3.5c0-.28.22-.5.5-.5h1c.27 0 .5.22.5.5V32h4v-3.5c0-.28.22-.5.5-.5h1c.27 0 .5.22.5.5V32h4.85a1 1 0 0 0 .99-1.14l-.6-4.13c-.1-.74.24-1.44.85-1.87C29.7 22.29 32 18.38 32 14c0-7.73-7.15-14-16-14zm-6 20a4 4 0 1 1 0-8 4 4 0 0 1 0 8zm12 0a4 4 0 1 1 0-8 4 4 0 0 1 0 8z"/>
    </symbol>
  </defs>
</svg>
